<?xml version="1.0" standalone="no"?>
<!DOCTYPE svg PUBLIC "-//W3C//DTD SVG 20010904//EN"
 "http://www.w3.org/TR/2001/REC-SVG-20010904/DTD/svg10.dtd">
<svg version="1.0" xmlns="http://www.w3.org/2000/svg"
 width="233.000000pt" height="233.000000pt" viewBox="0 0 233.000000 233.000000"
 preserveAspectRatio="xMidYMid meet">

<g transform="translate(0.000000,233.000000) scale(0.100000,-0.100000)"
fill="#000000" stroke="none">
<path d="M1163 1679 l-123 -41 0 -58 c0 -31 3 -78 6 -102 l6 -45 57 -7 c31 -3
99 -19 151 -36 117 -37 175 -38 282 -4 151 47 218 99 218 169 0 59 -102 111
-292 150 -120 24 -168 20 -305 -26z"/>
<path d="M818 1609 c-100 -15 -148 -53 -148 -116 0 -53 36 -85 103 -91 31 -2
81 -1 112 3 l55 6 -1 62 c0 34 -3 80 -7 102 -8 46 -18 49 -114 34z"/>
<path d="M1290 1194 c-52 -14 -126 -31 -165 -37 l-70 -13 -9 -93 c-10 -108
-20 -95 109 -147 143 -58 287 -58 476 2 93 29 129 59 129 108 0 66 -75 124
-225 174 -100 34 -140 35 -245 6z"/>
<path d="M743 1189 c-41 -12 -63 -44 -63 -90 0 -71 56 -107 193 -124 l56 -7 5
33 c3 19 7 66 8 104 l3 70 -55 12 c-67 14 -105 14 -147 2z"/>
<path d="M1188 730 c-21 -13 -24 -70 -6 -88 7 -7 28 -12 48 -12 20 0 41 5 48
12 14 14 16 57 4 76 -11 17 -73 25 -94 12z"/>
<path d="M510 500 l0 -231 58 3 57 3 5 120 c4 98 8 120 20 120 12 0 16 -22 20
-120 l5 -120 57 -3 c54 -3 58 -2 64 23 10 41 -1 278 -14 302 -17 31 -74 40
-118 19 l-34 -16 0 65 0 65 -60 0 -60 0 0 -230z"/>
<path d="M170 500 l0 -220 60 0 60 0 0 83 c0 93 9 90 36 -15 l18 -68 63 0 c44
0 63 4 63 13 0 6 -12 47 -25 90 -25 78 -25 79 -6 103 26 33 35 100 21 153 -18
66 -51 81 -182 81 l-108 0 0 -220z m164 94 c12 -31 6 -63 -13 -74 -30 -15 -31
-14 -31 40 0 42 3 50 19 50 10 0 22 -7 25 -16z"/>
<path d="M899 607 c-49 -33 -64 -69 -64 -157 0 -125 45 -180 145 -180 100 0
144 55 144 180 0 92 -21 141 -69 164 -49 24 -115 20 -156 -7z m105 -93 c3 -9
6 -40 6 -69 0 -66 -7 -85 -30 -85 -23 0 -30 19 -30 85 0 66 7 85 30 85 10 0
21 -7 24 -16z"/>
<path d="M1410 613 c-53 -28 -75 -74 -75 -163 0 -124 52 -181 162 -179 84 2
98 9 98 54 l0 40 -45 -3 c-62 -3 -87 4 -93 28 -5 18 1 19 77 22 l81 3 -1 73
c0 67 -3 75 -30 103 -40 39 -121 50 -174 22z m98 -115 c3 -14 -3 -18 -27 -18
-29 0 -41 17 -24 34 13 13 48 1 51 -16z"/>
<path d="M1745 623 c-65 -17 -97 -74 -97 -173 0 -143 72 -199 225 -174 36 7
37 7 37 51 l0 45 -56 -7 c-57 -7 -84 3 -84 31 0 10 21 14 78 16 l77 3 3 57 c6
121 -66 180 -183 151z m75 -123 c0 -16 -7 -20 -30 -20 -32 0 -33 1 -24 24 9
24 54 21 54 -4z"/>
<path d="M1993 611 c-34 -21 -45 -45 -45 -98 0 -46 28 -82 85 -111 58 -29 62
-47 8 -38 -22 3 -46 8 -54 12 -11 4 -16 -6 -20 -38 -3 -24 -2 -47 4 -53 5 -5
41 -11 79 -13 66 -4 71 -3 100 26 23 24 30 39 30 71 0 59 -17 86 -71 116 -65
35 -63 48 6 40 l55 -7 0 50 c0 47 -1 50 -31 56 -58 11 -114 6 -146 -13z"/>
<path d="M1170 441 c0 -161 -1 -170 -20 -176 -21 -7 -24 -22 -14 -75 l7 -32
51 6 c37 5 57 14 74 32 21 24 22 32 22 220 l0 194 -60 0 -60 0 0 -169z"/>
</g>
</svg>
